<svg xmlns="http://www.w3.org/2000/svg" viewBox="0 0 42.34 24.14">
    <defs>
        <style>.cls-1{fill:#a6adb5;}</style>
    </defs>
    <title>icon-peak</title>
    <g id="Capa_2" data-name="Capa 2">
        <g id="Capa_1-2" data-name="Capa 1">
            <path class="cls-1"
                  d="M36.79,6.43a22,22,0,0,0-31.07,0L0,12.15l5.56,5.56a22,22,0,0,0,31.06,0L42.34,12ZM35.6,16.69a20.53,20.53,0,0,1-29,0L2,12.15l4.7-4.7a20.53,20.53,0,0,1,29,0L40.3,12Z"/>
            <path class="cls-1"
                  d="M20.93,2.86a9.23,9.23,0,1,0,9.23,9.23A9.24,9.24,0,0,0,20.93,2.86Zm0,17a7.79,7.79,0,1,1,7.79-7.79A7.8,7.8,0,0,1,20.93,19.88Z"/>
        </g>
    </g>
</svg>