<svg xmlns="http://www.w3.org/2000/svg" viewBox="0 0 42.58 34.97">
    <defs>
        <style>.cls-1{fill:#a6adb5;}</style>
    </defs>
    <title>icon-peak-false</title>
    <g id="Capa_2" data-name="Capa 2">
        <g id="Capa_1-2" data-name="Capa 1">
            <path class="cls-1"
                  d="M8.14,26a.69.69,0,0,0,.45.16.71.71,0,0,0,.56-.27.72.72,0,0,0-.11-1,19.54,19.54,0,0,1-1.67-1.49L2,18.1l5.5-5.51A19.49,19.49,0,0,1,27.62,7.88a.72.72,0,0,0,.91-.45.73.73,0,0,0-.46-.92A20.93,20.93,0,0,0,6.52,11.57L0,18.1l6.35,6.35A22.35,22.35,0,0,0,8.14,26Z"/>
            <path class="cls-1"
                  d="M36.23,11.57A21.81,21.81,0,0,0,33.06,9a.72.72,0,0,0-1,.19.71.71,0,0,0,.19,1,19.65,19.65,0,0,1,3,2.43l5.34,5.34L35,23.43A19.64,19.64,0,0,1,14.59,28a.72.72,0,1,0-.48,1.36,20.92,20.92,0,0,0,7.05,1.22,21.13,21.13,0,0,0,14.9-6.14l6.52-6.52Z"/>
            <path class="cls-1"
                  d="M22,26.32a8.28,8.28,0,0,1-4.38-1.25.72.72,0,0,0-.76,1.23A9.74,9.74,0,0,0,30.12,12.62a.73.73,0,0,0-1-.2.71.71,0,0,0-.2,1A8.3,8.3,0,0,1,22,26.32Z"/>
            <path class="cls-1"
                  d="M22,9.73a8.22,8.22,0,0,1,4.22,1.16A.72.72,0,0,0,27,9.65,9.73,9.73,0,0,0,12.29,18a9.6,9.6,0,0,0,1,4.28.71.71,0,0,0,.64.41.72.72,0,0,0,.32-.08.71.71,0,0,0,.33-1A8.21,8.21,0,0,1,13.73,18,8.3,8.3,0,0,1,22,9.73Z"/>
            <path class="cls-1"
                  d="M39.39.21a.72.72,0,0,0-1,0L4.84,33.74A.72.72,0,0,0,5.35,35a.73.73,0,0,0,.51-.21L39.39,1.23A.72.72,0,0,0,39.39.21Z"/>
        </g>
    </g>
</svg>